<svg width="35" height="42" viewBox="0 0 35 42" fill="none" xmlns="http://www.w3.org/2000/svg">
<path d="M0.171424 11.7161C0.0790282 10.5527 0.998152 9.55771 2.16515 9.55771H32.8349C34.0018 9.55771 34.921 10.5527 34.8286 11.7161L33.1582 32.747C32.7866 37.4265 28.8807 41.0345 24.1865 41.0345H10.8135C6.1193 41.0345 2.21344 37.4265 1.84178 32.747L0.171424 11.7161Z" fill="#BE2424"/>
<line x1="9.49976" y1="14.4003" x2="9.49976" y2="36.1919" stroke="white"/>
<line x1="26.5002" y1="14.4003" x2="26.5002" y2="36.1919" stroke="white"/>
<line x1="18.5" y1="14.4003" x2="18.5" y2="36.1919" stroke="white"/>
<path d="M0 6.83908C0 4.68072 1.74969 2.93103 3.90804 2.93103H31.092C33.2503 2.93103 35 4.68072 35 6.83908H0Z" fill="#BE2424"/>
<path d="M13 2C13 1.44772 13.4477 1 14 1H21C21.5523 1 22 1.44772 22 2V3.88506H13V2Z" stroke="#BE2424" stroke-width="2"/>
</svg>
