<svg width="31" height="32" viewBox="0 0 31 32" fill="none" xmlns="http://www.w3.org/2000/svg">
<path d="M14.7812 1.91999L11.5143 5.29785L1.63951 15.508C1.02574 16.1427 1.47545 17.2032 2.35833 17.2032H4.87143V29.0244C4.87143 29.5767 5.31914 30.0244 5.87143 30.0244H10.9571C11.5094 30.0244 11.9571 29.5767 11.9571 29.0244V20.4085H19.0429V29.0244C19.0429 29.5767 19.4906 30.0244 20.0429 30.0244H24.6857C25.238 30.0244 25.6857 29.5767 25.6857 29.0244V17.2032H28.6417C29.5245 17.2032 29.9743 16.1427 29.3605 15.508L16.2188 1.91999C15.8258 1.51359 15.1742 1.51359 14.7812 1.91999Z" stroke="#D95555" stroke-width="2"/>
</svg>
