<svg width="128" height="43" viewBox="0 0 128 43" fill="none" xmlns="http://www.w3.org/2000/svg">
<mask id="path-1-inside-1_13_140" fill="white">
<path d="M44.4911 18.6607V1.27002H50.1813C51.5024 1.27002 52.5823 1.51628 53.4211 2.00879C54.2653 2.49564 54.8902 3.15515 55.2959 3.98732C55.7015 4.81949 55.9044 5.7479 55.9044 6.77255C55.9044 7.79719 55.7015 8.72843 55.2959 9.56627C54.8957 10.4041 54.2762 11.0721 53.4375 11.5703C52.5988 12.0628 51.5243 12.309 50.2141 12.309H46.1356V10.4409H50.1484C51.0529 10.4409 51.7792 10.2796 52.3274 9.95688C52.8756 9.6342 53.273 9.1983 53.5197 8.64918C53.7719 8.0944 53.898 7.46885 53.898 6.77255C53.898 6.07624 53.7719 5.45352 53.5197 4.9044C53.273 4.35528 52.8729 3.92505 52.3192 3.61369C51.7655 3.29667 51.0309 3.13816 50.1155 3.13816H46.5303V18.6607H44.4911Z"/>
<path d="M58.1615 18.6607H56.0236L62.2072 1.27002H64.3122L70.4958 18.6607H68.3578L63.3255 4.02128H63.1939L58.1615 18.6607ZM58.9509 11.8675H67.5685V13.7356H58.9509V11.8675Z"/>
<path d="M73.1189 18.6607V1.27002H75.1581V16.7926H82.9863V18.6607H73.1189Z"/>
<path d="M87.8974 18.6607H85.7594L91.943 1.27002H94.048L100.232 18.6607H98.0937L93.0613 4.02128H92.9297L87.8974 18.6607ZM88.6868 11.8675H97.3043V13.7356H88.6868V11.8675Z"/>
<path d="M99.9664 3.13816V1.27002H112.597V3.13816H107.301V18.6607H105.262V3.13816H99.9664Z"/>
<path d="M115.744 18.6607V1.27002H125.907V3.13816H117.783V9.01431H125.381V10.8825H117.783V16.7926H126.039V18.6607H115.744Z"/>
<path d="M45.0858 42.5729V20.1099H52.4357C54.1422 20.1099 55.5371 20.428 56.6204 21.0642C57.7109 21.693 58.5181 22.5449 59.042 23.6198C59.566 24.6947 59.828 25.8939 59.828 27.2174C59.828 28.5409 59.566 29.7437 59.042 30.8259C58.5252 31.9081 57.725 32.771 56.6417 33.4144C55.5583 34.0506 54.1705 34.3687 52.4782 34.3687H47.2101V31.9557H52.3932C53.5615 31.9557 54.4997 31.7473 55.2078 31.3305C55.9159 30.9137 56.4292 30.3506 56.7479 29.6413C57.0736 28.9248 57.2365 28.1168 57.2365 27.2174C57.2365 26.318 57.0736 25.5136 56.7479 24.8044C56.4292 24.0951 55.9123 23.5393 55.1972 23.1372C54.482 22.7277 53.5332 22.523 52.3507 22.523H47.7199V42.5729H45.0858Z"/>
<path d="M66.7052 20.1099V42.5729H64.0712V20.1099H66.7052Z"/>
<path d="M89.4903 27.1296H86.8562C86.7005 26.3472 86.4278 25.6599 86.0384 25.0676C85.656 24.4753 85.1887 23.9781 84.6364 23.5759C84.0912 23.1664 83.4858 22.8593 82.8202 22.6546C82.1546 22.4498 81.4607 22.3475 80.7384 22.3475C79.4214 22.3475 78.2283 22.6911 77.1591 23.3785C76.097 24.0658 75.2508 25.0786 74.6207 26.4167C73.9975 27.7548 73.686 29.3964 73.686 31.3414C73.686 33.2865 73.9975 34.928 74.6207 36.2662C75.2508 37.6043 76.097 38.617 77.1591 39.3044C78.2283 39.9917 79.4214 40.3354 80.7384 40.3354C81.4607 40.3354 82.1546 40.233 82.8202 40.0283C83.4858 39.8235 84.0912 39.5201 84.6364 39.1179C85.1887 38.7084 85.656 38.2076 86.0384 37.6153C86.4278 37.0157 86.7005 36.3283 86.8562 35.5532H89.4903C89.292 36.7012 88.9309 37.7286 88.4069 38.6353C87.883 39.542 87.2315 40.3135 86.4526 40.9496C85.6738 41.5785 84.7993 42.0574 83.8292 42.3865C82.8662 42.7155 81.836 42.88 80.7384 42.88C78.8833 42.88 77.2335 42.4121 75.789 41.4761C74.3445 40.5401 73.208 39.2093 72.3796 37.4836C71.5511 35.758 71.1369 33.7106 71.1369 31.3414C71.1369 28.9723 71.5511 26.9249 72.3796 25.1992C73.208 23.4735 74.3445 22.1427 75.789 21.2068C77.2335 20.2708 78.8833 19.8028 80.7384 19.8028C81.836 19.8028 82.8662 19.9674 83.8292 20.2964C84.7993 20.6254 85.6738 21.108 86.4526 21.7442C87.2315 22.3731 87.883 23.1408 88.4069 24.0475C88.9309 24.9469 89.292 25.9743 89.4903 27.1296Z"/>
<path d="M93.7467 42.5729V20.1099H96.3808V31.2537H96.6357L106.407 20.1099H109.848L100.714 30.2446L109.848 42.5729H106.662L99.0998 32.1311L96.3808 35.29V42.5729H93.7467Z"/>
<path d="M125.154 25.7257C125.026 24.6142 124.509 23.7514 123.603 23.1372C122.696 22.523 121.585 22.2158 120.268 22.2158C119.305 22.2158 118.462 22.3767 117.74 22.6984C117.025 23.0202 116.465 23.4626 116.062 24.0256C115.665 24.5886 115.467 25.2285 115.467 25.945C115.467 26.5446 115.605 27.0602 115.881 27.4916C116.164 27.9157 116.526 28.2703 116.965 28.5555C117.404 28.8334 117.864 29.0637 118.345 29.2465C118.827 29.422 119.269 29.5646 119.673 29.6743L121.882 30.2885C122.449 30.442 123.079 30.6541 123.773 30.9246C124.474 31.1952 125.143 31.5644 125.78 32.0324C126.425 32.4931 126.956 33.0854 127.373 33.8093C127.791 34.5332 128 35.4216 128 36.4746C128 37.6884 127.692 38.7852 127.076 39.765C126.467 40.7449 125.575 41.5236 124.399 42.1013C123.231 42.6789 121.811 42.9678 120.14 42.9678C118.583 42.9678 117.234 42.7082 116.094 42.189C114.961 41.6699 114.069 40.946 113.417 40.0173C112.773 39.0887 112.408 38.0101 112.323 36.7817H115.042C115.113 37.6299 115.389 38.3319 115.871 38.8876C116.359 39.436 116.975 39.8455 117.719 40.116C118.469 40.3793 119.276 40.5109 120.14 40.5109C121.146 40.5109 122.049 40.3427 122.849 40.0064C123.649 39.6627 124.283 39.1874 124.75 38.5805C125.217 37.9663 125.451 37.2497 125.451 36.4307C125.451 35.6849 125.249 35.0779 124.846 34.61C124.442 34.142 123.911 33.7618 123.252 33.4693C122.594 33.1768 121.882 32.9209 121.117 32.7015L118.441 31.9118C116.742 31.4072 115.396 30.687 114.405 29.751C113.414 28.8151 112.918 27.5903 112.918 26.0767C112.918 24.819 113.247 23.7221 113.906 22.7862C114.571 21.8429 115.463 21.1117 116.582 20.5925C117.708 20.0661 118.965 19.8028 120.353 19.8028C121.755 19.8028 123.001 20.0624 124.091 20.5816C125.182 21.0934 126.046 21.7954 126.683 22.6875C127.327 23.5796 127.667 24.5923 127.703 25.7257H125.154Z"/>
<path d="M0 2.71925C0 1.61872 0.863923 0.726562 1.92963 0.726562H27.0148C34.4747 0.726562 40.5222 6.97165 40.5222 14.6753V40.5802C40.5222 41.6808 39.6582 42.5729 38.5925 42.5729H13.5074C6.04746 42.5729 0 36.3278 0 28.6241V2.71925Z"/>
</mask>
<path d="M44.4911 18.6607V1.27002H50.1813C51.5024 1.27002 52.5823 1.51628 53.4211 2.00879C54.2653 2.49564 54.8902 3.15515 55.2959 3.98732C55.7015 4.81949 55.9044 5.7479 55.9044 6.77255C55.9044 7.79719 55.7015 8.72843 55.2959 9.56627C54.8957 10.4041 54.2762 11.0721 53.4375 11.5703C52.5988 12.0628 51.5243 12.309 50.2141 12.309H46.1356V10.4409H50.1484C51.0529 10.4409 51.7792 10.2796 52.3274 9.95688C52.8756 9.6342 53.273 9.1983 53.5197 8.64918C53.7719 8.0944 53.898 7.46885 53.898 6.77255C53.898 6.07624 53.7719 5.45352 53.5197 4.9044C53.273 4.35528 52.8729 3.92505 52.3192 3.61369C51.7655 3.29667 51.0309 3.13816 50.1155 3.13816H46.5303V18.6607H44.4911Z" fill="black"/>
<path d="M58.1615 18.6607H56.0236L62.2072 1.27002H64.3122L70.4958 18.6607H68.3578L63.3255 4.02128H63.1939L58.1615 18.6607ZM58.9509 11.8675H67.5685V13.7356H58.9509V11.8675Z" fill="black"/>
<path d="M73.1189 18.6607V1.27002H75.1581V16.7926H82.9863V18.6607H73.1189Z" fill="black"/>
<path d="M87.8974 18.6607H85.7594L91.943 1.27002H94.048L100.232 18.6607H98.0937L93.0613 4.02128H92.9297L87.8974 18.6607ZM88.6868 11.8675H97.3043V13.7356H88.6868V11.8675Z" fill="black"/>
<path d="M99.9664 3.13816V1.27002H112.597V3.13816H107.301V18.6607H105.262V3.13816H99.9664Z" fill="black"/>
<path d="M115.744 18.6607V1.27002H125.907V3.13816H117.783V9.01431H125.381V10.8825H117.783V16.7926H126.039V18.6607H115.744Z" fill="black"/>
<path d="M45.0858 42.5729V20.1099H52.4357C54.1422 20.1099 55.5371 20.428 56.6204 21.0642C57.7109 21.693 58.5181 22.5449 59.042 23.6198C59.566 24.6947 59.828 25.8939 59.828 27.2174C59.828 28.5409 59.566 29.7437 59.042 30.8259C58.5252 31.9081 57.725 32.771 56.6417 33.4144C55.5583 34.0506 54.1705 34.3687 52.4782 34.3687H47.2101V31.9557H52.3932C53.5615 31.9557 54.4997 31.7473 55.2078 31.3305C55.9159 30.9137 56.4292 30.3506 56.7479 29.6413C57.0736 28.9248 57.2365 28.1168 57.2365 27.2174C57.2365 26.318 57.0736 25.5136 56.7479 24.8044C56.4292 24.0951 55.9123 23.5393 55.1972 23.1372C54.482 22.7277 53.5332 22.523 52.3507 22.523H47.7199V42.5729H45.0858Z" fill="black"/>
<path d="M66.7052 20.1099V42.5729H64.0712V20.1099H66.7052Z" fill="black"/>
<path d="M89.4903 27.1296H86.8562C86.7005 26.3472 86.4278 25.6599 86.0384 25.0676C85.656 24.4753 85.1887 23.9781 84.6364 23.5759C84.0912 23.1664 83.4858 22.8593 82.8202 22.6546C82.1546 22.4498 81.4607 22.3475 80.7384 22.3475C79.4214 22.3475 78.2283 22.6911 77.1591 23.3785C76.097 24.0658 75.2508 25.0786 74.6207 26.4167C73.9975 27.7548 73.686 29.3964 73.686 31.3414C73.686 33.2865 73.9975 34.928 74.6207 36.2662C75.2508 37.6043 76.097 38.617 77.1591 39.3044C78.2283 39.9917 79.4214 40.3354 80.7384 40.3354C81.4607 40.3354 82.1546 40.233 82.8202 40.0283C83.4858 39.8235 84.0912 39.5201 84.6364 39.1179C85.1887 38.7084 85.656 38.2076 86.0384 37.6153C86.4278 37.0157 86.7005 36.3283 86.8562 35.5532H89.4903C89.292 36.7012 88.9309 37.7286 88.4069 38.6353C87.883 39.542 87.2315 40.3135 86.4526 40.9496C85.6738 41.5785 84.7993 42.0574 83.8292 42.3865C82.8662 42.7155 81.836 42.88 80.7384 42.88C78.8833 42.88 77.2335 42.4121 75.789 41.4761C74.3445 40.5401 73.208 39.2093 72.3796 37.4836C71.5511 35.758 71.1369 33.7106 71.1369 31.3414C71.1369 28.9723 71.5511 26.9249 72.3796 25.1992C73.208 23.4735 74.3445 22.1427 75.789 21.2068C77.2335 20.2708 78.8833 19.8028 80.7384 19.8028C81.836 19.8028 82.8662 19.9674 83.8292 20.2964C84.7993 20.6254 85.6738 21.108 86.4526 21.7442C87.2315 22.3731 87.883 23.1408 88.4069 24.0475C88.9309 24.9469 89.292 25.9743 89.4903 27.1296Z" fill="black"/>
<path d="M93.7467 42.5729V20.1099H96.3808V31.2537H96.6357L106.407 20.1099H109.848L100.714 30.2446L109.848 42.5729H106.662L99.0998 32.1311L96.3808 35.29V42.5729H93.7467Z" fill="black"/>
<path d="M125.154 25.7257C125.026 24.6142 124.509 23.7514 123.603 23.1372C122.696 22.523 121.585 22.2158 120.268 22.2158C119.305 22.2158 118.462 22.3767 117.74 22.6984C117.025 23.0202 116.465 23.4626 116.062 24.0256C115.665 24.5886 115.467 25.2285 115.467 25.945C115.467 26.5446 115.605 27.0602 115.881 27.4916C116.164 27.9157 116.526 28.2703 116.965 28.5555C117.404 28.8334 117.864 29.0637 118.345 29.2465C118.827 29.422 119.269 29.5646 119.673 29.6743L121.882 30.2885C122.449 30.442 123.079 30.6541 123.773 30.9246C124.474 31.1952 125.143 31.5644 125.78 32.0324C126.425 32.4931 126.956 33.0854 127.373 33.8093C127.791 34.5332 128 35.4216 128 36.4746C128 37.6884 127.692 38.7852 127.076 39.765C126.467 40.7449 125.575 41.5236 124.399 42.1013C123.231 42.6789 121.811 42.9678 120.14 42.9678C118.583 42.9678 117.234 42.7082 116.094 42.189C114.961 41.6699 114.069 40.946 113.417 40.0173C112.773 39.0887 112.408 38.0101 112.323 36.7817H115.042C115.113 37.6299 115.389 38.3319 115.871 38.8876C116.359 39.436 116.975 39.8455 117.719 40.116C118.469 40.3793 119.276 40.5109 120.14 40.5109C121.146 40.5109 122.049 40.3427 122.849 40.0064C123.649 39.6627 124.283 39.1874 124.75 38.5805C125.217 37.9663 125.451 37.2497 125.451 36.4307C125.451 35.6849 125.249 35.0779 124.846 34.61C124.442 34.142 123.911 33.7618 123.252 33.4693C122.594 33.1768 121.882 32.9209 121.117 32.7015L118.441 31.9118C116.742 31.4072 115.396 30.687 114.405 29.751C113.414 28.8151 112.918 27.5903 112.918 26.0767C112.918 24.819 113.247 23.7221 113.906 22.7862C114.571 21.8429 115.463 21.1117 116.582 20.5925C117.708 20.0661 118.965 19.8028 120.353 19.8028C121.755 19.8028 123.001 20.0624 124.091 20.5816C125.182 21.0934 126.046 21.7954 126.683 22.6875C127.327 23.5796 127.667 24.5923 127.703 25.7257H125.154Z" fill="black"/>
<path d="M44.4911 18.6607V1.27002H50.1813C51.5024 1.27002 52.5823 1.51628 53.4211 2.00879C54.2653 2.49564 54.8902 3.15515 55.2959 3.98732C55.7015 4.81949 55.9044 5.7479 55.9044 6.77255C55.9044 7.79719 55.7015 8.72843 55.2959 9.56627C54.8957 10.4041 54.2762 11.0721 53.4375 11.5703C52.5988 12.0628 51.5243 12.309 50.2141 12.309H46.1356V10.4409H50.1484C51.0529 10.4409 51.7792 10.2796 52.3274 9.95688C52.8756 9.6342 53.273 9.1983 53.5197 8.64918C53.7719 8.0944 53.898 7.46885 53.898 6.77255C53.898 6.07624 53.7719 5.45352 53.5197 4.9044C53.273 4.35528 52.8729 3.92505 52.3192 3.61369C51.7655 3.29667 51.0309 3.13816 50.1155 3.13816H46.5303V18.6607H44.4911Z" stroke="#FAFAFA" stroke-width="6" mask="url(#path-1-inside-1_13_140)"/>
<path d="M58.1615 18.6607H56.0236L62.2072 1.27002H64.3122L70.4958 18.6607H68.3578L63.3255 4.02128H63.1939L58.1615 18.6607ZM58.9509 11.8675H67.5685V13.7356H58.9509V11.8675Z" stroke="#FAFAFA" stroke-width="6" mask="url(#path-1-inside-1_13_140)"/>
<path d="M73.1189 18.6607V1.27002H75.1581V16.7926H82.9863V18.6607H73.1189Z" stroke="#FAFAFA" stroke-width="6" mask="url(#path-1-inside-1_13_140)"/>
<path d="M87.8974 18.6607H85.7594L91.943 1.27002H94.048L100.232 18.6607H98.0937L93.0613 4.02128H92.9297L87.8974 18.6607ZM88.6868 11.8675H97.3043V13.7356H88.6868V11.8675Z" stroke="#FAFAFA" stroke-width="6" mask="url(#path-1-inside-1_13_140)"/>
<path d="M99.9664 3.13816V1.27002H112.597V3.13816H107.301V18.6607H105.262V3.13816H99.9664Z" stroke="#FAFAFA" stroke-width="6" mask="url(#path-1-inside-1_13_140)"/>
<path d="M115.744 18.6607V1.27002H125.907V3.13816H117.783V9.01431H125.381V10.8825H117.783V16.7926H126.039V18.6607H115.744Z" stroke="#FAFAFA" stroke-width="6" mask="url(#path-1-inside-1_13_140)"/>
<path d="M45.0858 42.5729V20.1099H52.4357C54.1422 20.1099 55.5371 20.428 56.6204 21.0642C57.7109 21.693 58.5181 22.5449 59.042 23.6198C59.566 24.6947 59.828 25.8939 59.828 27.2174C59.828 28.5409 59.566 29.7437 59.042 30.8259C58.5252 31.9081 57.725 32.771 56.6417 33.4144C55.5583 34.0506 54.1705 34.3687 52.4782 34.3687H47.2101V31.9557H52.3932C53.5615 31.9557 54.4997 31.7473 55.2078 31.3305C55.9159 30.9137 56.4292 30.3506 56.7479 29.6413C57.0736 28.9248 57.2365 28.1168 57.2365 27.2174C57.2365 26.318 57.0736 25.5136 56.7479 24.8044C56.4292 24.0951 55.9123 23.5393 55.1972 23.1372C54.482 22.7277 53.5332 22.523 52.3507 22.523H47.7199V42.5729H45.0858Z" stroke="#FAFAFA" stroke-width="6" mask="url(#path-1-inside-1_13_140)"/>
<path d="M66.7052 20.1099V42.5729H64.0712V20.1099H66.7052Z" stroke="#FAFAFA" stroke-width="6" mask="url(#path-1-inside-1_13_140)"/>
<path d="M89.4903 27.1296H86.8562C86.7005 26.3472 86.4278 25.6599 86.0384 25.0676C85.656 24.4753 85.1887 23.9781 84.6364 23.5759C84.0912 23.1664 83.4858 22.8593 82.8202 22.6546C82.1546 22.4498 81.4607 22.3475 80.7384 22.3475C79.4214 22.3475 78.2283 22.6911 77.1591 23.3785C76.097 24.0658 75.2508 25.0786 74.6207 26.4167C73.9975 27.7548 73.686 29.3964 73.686 31.3414C73.686 33.2865 73.9975 34.928 74.6207 36.2662C75.2508 37.6043 76.097 38.617 77.1591 39.3044C78.2283 39.9917 79.4214 40.3354 80.7384 40.3354C81.4607 40.3354 82.1546 40.233 82.8202 40.0283C83.4858 39.8235 84.0912 39.5201 84.6364 39.1179C85.1887 38.7084 85.656 38.2076 86.0384 37.6153C86.4278 37.0157 86.7005 36.3283 86.8562 35.5532H89.4903C89.292 36.7012 88.9309 37.7286 88.4069 38.6353C87.883 39.542 87.2315 40.3135 86.4526 40.9496C85.6738 41.5785 84.7993 42.0574 83.8292 42.3865C82.8662 42.7155 81.836 42.88 80.7384 42.88C78.8833 42.88 77.2335 42.4121 75.789 41.4761C74.3445 40.5401 73.208 39.2093 72.3796 37.4836C71.5511 35.758 71.1369 33.7106 71.1369 31.3414C71.1369 28.9723 71.5511 26.9249 72.3796 25.1992C73.208 23.4735 74.3445 22.1427 75.789 21.2068C77.2335 20.2708 78.8833 19.8028 80.7384 19.8028C81.836 19.8028 82.8662 19.9674 83.8292 20.2964C84.7993 20.6254 85.6738 21.108 86.4526 21.7442C87.2315 22.3731 87.883 23.1408 88.4069 24.0475C88.9309 24.9469 89.292 25.9743 89.4903 27.1296Z" stroke="#FAFAFA" stroke-width="6" mask="url(#path-1-inside-1_13_140)"/>
<path d="M93.7467 42.5729V20.1099H96.3808V31.2537H96.6357L106.407 20.1099H109.848L100.714 30.2446L109.848 42.5729H106.662L99.0998 32.1311L96.3808 35.29V42.5729H93.7467Z" stroke="#FAFAFA" stroke-width="6" mask="url(#path-1-inside-1_13_140)"/>
<path d="M125.154 25.7257C125.026 24.6142 124.509 23.7514 123.603 23.1372C122.696 22.523 121.585 22.2158 120.268 22.2158C119.305 22.2158 118.462 22.3767 117.74 22.6984C117.025 23.0202 116.465 23.4626 116.062 24.0256C115.665 24.5886 115.467 25.2285 115.467 25.945C115.467 26.5446 115.605 27.0602 115.881 27.4916C116.164 27.9157 116.526 28.2703 116.965 28.5555C117.404 28.8334 117.864 29.0637 118.345 29.2465C118.827 29.422 119.269 29.5646 119.673 29.6743L121.882 30.2885C122.449 30.442 123.079 30.6541 123.773 30.9246C124.474 31.1952 125.143 31.5644 125.78 32.0324C126.425 32.4931 126.956 33.0854 127.373 33.8093C127.791 34.5332 128 35.4216 128 36.4746C128 37.6884 127.692 38.7852 127.076 39.765C126.467 40.7449 125.575 41.5236 124.399 42.1013C123.231 42.6789 121.811 42.9678 120.14 42.9678C118.583 42.9678 117.234 42.7082 116.094 42.189C114.961 41.6699 114.069 40.946 113.417 40.0173C112.773 39.0887 112.408 38.0101 112.323 36.7817H115.042C115.113 37.6299 115.389 38.3319 115.871 38.8876C116.359 39.436 116.975 39.8455 117.719 40.116C118.469 40.3793 119.276 40.5109 120.14 40.5109C121.146 40.5109 122.049 40.3427 122.849 40.0064C123.649 39.6627 124.283 39.1874 124.75 38.5805C125.217 37.9663 125.451 37.2497 125.451 36.4307C125.451 35.6849 125.249 35.0779 124.846 34.61C124.442 34.142 123.911 33.7618 123.252 33.4693C122.594 33.1768 121.882 32.9209 121.117 32.7015L118.441 31.9118C116.742 31.4072 115.396 30.687 114.405 29.751C113.414 28.8151 112.918 27.5903 112.918 26.0767C112.918 24.819 113.247 23.7221 113.906 22.7862C114.571 21.8429 115.463 21.1117 116.582 20.5925C117.708 20.0661 118.965 19.8028 120.353 19.8028C121.755 19.8028 123.001 20.0624 124.091 20.5816C125.182 21.0934 126.046 21.7954 126.683 22.6875C127.327 23.5796 127.667 24.5923 127.703 25.7257H125.154Z" stroke="#FAFAFA" stroke-width="6" mask="url(#path-1-inside-1_13_140)"/>
<path d="M0 2.71925C0 1.61872 0.863923 0.726562 1.92963 0.726562H27.0148C34.4747 0.726562 40.5222 6.97165 40.5222 14.6753V40.5802C40.5222 41.6808 39.6582 42.5729 38.5925 42.5729H13.5074C6.04746 42.5729 0 36.3278 0 28.6241V2.71925Z" stroke="#FAFAFA" stroke-width="6" mask="url(#path-1-inside-1_13_140)"/>
</svg>
