<svg width="290" height="91" viewBox="0 0 290 91" fill="none" xmlns="http://www.w3.org/2000/svg">
<mask id="path-1-inside-1_7_106" fill="white">
<path d="M100.585 38.6354V1.17077H113.443C116.428 1.17077 118.868 1.70128 120.763 2.76229C122.671 3.8111 124.083 5.23188 124.999 7.02463C125.916 8.81737 126.374 10.8174 126.374 13.0248C126.374 15.2322 125.916 17.2384 124.999 19.0433C124.095 20.8483 122.695 22.2873 120.8 23.3605C118.905 24.4216 116.477 24.9521 113.517 24.9521H104.301V20.9275H113.368C115.412 20.9275 117.053 20.58 118.292 19.8848C119.531 19.1897 120.429 18.2506 120.986 17.0676C121.556 15.8725 121.841 14.5249 121.841 13.0248C121.841 11.5248 121.556 10.1833 120.986 9.0003C120.429 7.81733 119.524 6.89047 118.273 6.21972C117.022 5.53677 115.362 5.1953 113.294 5.1953H105.193V38.6354H100.585Z"/>
<path d="M131.474 38.6354H126.644L140.616 1.17077H145.372L159.344 38.6354H154.513L143.143 7.0978H142.845L131.474 38.6354ZM133.258 24.0008H152.73V28.0253H133.258V24.0008Z"/>
<path d="M165.271 38.6354V1.17077H169.879V34.6109H187.567V38.6354H165.271Z"/>
<path d="M198.664 38.6354H193.833L207.805 1.17077H212.562L226.534 38.6354H221.703L210.332 7.0978H210.035L198.664 38.6354ZM200.448 24.0008H219.919V28.0253H200.448V24.0008Z"/>
<path d="M225.935 5.1953V1.17077H254.473V5.1953H242.508V38.6354H237.9V5.1953H225.935Z"/>
<path d="M261.585 38.6354V1.17077H284.55V5.1953H266.193V17.8543H283.36V21.8788H266.193V34.6109H284.847V38.6354H261.585Z"/>
<path d="M101.929 90.1494V41.7575H118.537C122.392 41.7575 125.544 42.4427 127.992 43.8132C130.456 45.1679 132.28 47.0031 133.464 49.3187C134.648 51.6343 135.24 54.2178 135.24 57.069C135.24 59.9202 134.648 62.5115 133.464 64.8429C132.296 67.1743 130.488 69.0331 128.04 70.4193C125.592 71.7898 122.456 72.475 118.633 72.475H106.729V67.2766H118.441C121.08 67.2766 123.2 66.8277 124.8 65.9298C126.4 65.0319 127.56 63.819 128.28 62.291C129.016 60.7472 129.384 59.0066 129.384 57.069C129.384 55.1314 129.016 53.3986 128.28 51.8706C127.56 50.3426 126.392 49.1454 124.776 48.2791C123.16 47.3969 121.016 46.9558 118.345 46.9558H107.881V90.1494H101.929Z"/>
<path d="M150.779 41.7575V90.1494H144.827V41.7575H150.779Z"/>
<path d="M202.263 56.88H196.311C195.959 55.1944 195.343 53.7137 194.464 52.4377C193.6 51.1618 192.544 50.0906 191.296 49.2242C190.064 48.3421 188.696 47.6805 187.192 47.2394C185.688 46.7983 184.12 46.5778 182.488 46.5778C179.512 46.5778 176.816 47.3181 174.4 48.7989C172 50.2796 170.088 52.4614 168.665 55.3441C167.257 58.2268 166.553 61.7632 166.553 65.9534C166.553 70.1436 167.257 73.6801 168.665 76.5628C170.088 79.4455 172 81.6272 174.4 83.108C176.816 84.5887 179.512 85.3291 182.488 85.3291C184.12 85.3291 185.688 85.1085 187.192 84.6675C188.696 84.2264 190.064 83.5727 191.296 82.7063C192.544 81.8241 193.6 80.7451 194.464 79.4691C195.343 78.1774 195.959 76.6967 196.311 75.0269H202.263C201.815 77.5001 200.999 79.7133 199.815 81.6666C198.631 83.6199 197.159 85.2818 195.399 86.6523C193.64 88.007 191.664 89.0388 189.472 89.7477C187.296 90.4565 184.968 90.811 182.488 90.811C178.296 90.811 174.568 89.8028 171.304 87.7865C168.041 85.7702 165.473 82.9032 163.601 79.1856C161.729 75.468 160.793 71.0573 160.793 65.9534C160.793 60.8496 161.729 56.4389 163.601 52.7213C165.473 49.0037 168.041 46.1367 171.304 44.1204C174.568 42.1041 178.296 41.0959 182.488 41.0959C184.968 41.0959 187.296 41.4503 189.472 42.1592C191.664 42.8681 193.64 43.9077 195.399 45.2782C197.159 46.6329 198.631 48.2869 199.815 50.2402C200.999 52.1778 201.815 54.3911 202.263 56.88Z"/>
<path d="M211.881 90.1494V41.7575H217.833V65.7644H218.409L240.488 41.7575H248.263L227.624 63.5905L248.263 90.1494H241.064L223.976 67.6547L217.833 74.4598V90.1494H211.881Z"/>
<path d="M282.846 53.8555C282.558 51.4611 281.39 49.6023 279.342 48.2791C277.294 46.9558 274.782 46.2942 271.806 46.2942C269.631 46.2942 267.727 46.6408 266.095 47.3339C264.479 48.027 263.215 48.98 262.303 50.193C261.407 51.4059 260.959 52.7843 260.959 54.328C260.959 55.6198 261.271 56.7303 261.895 57.6597C262.535 58.5734 263.351 59.3374 264.343 59.9517C265.335 60.5503 266.375 61.0465 267.463 61.4403C268.551 61.8184 269.551 62.1256 270.463 62.3618L275.454 63.6851C276.734 64.0159 278.158 64.4727 279.726 65.0555C281.31 65.6384 282.822 66.4339 284.262 67.442C285.718 68.4345 286.918 69.7104 287.862 71.2699C288.806 72.8294 289.278 74.7434 289.278 77.0117C289.278 79.6266 288.582 81.9895 287.19 84.1004C285.814 86.2112 283.798 87.8889 281.142 89.1333C278.502 90.3778 275.294 91 271.518 91C267.999 91 264.951 90.4408 262.375 89.3224C259.815 88.2039 257.799 86.6444 256.327 84.6438C254.871 82.6433 254.047 80.3198 253.855 77.6733H259.999C260.159 79.5006 260.783 81.0129 261.871 82.2101C262.975 83.3915 264.367 84.2737 266.047 84.8565C267.743 85.4236 269.567 85.7071 271.518 85.7071C273.79 85.7071 275.83 85.3448 277.638 84.6202C279.446 83.8799 280.878 82.8559 281.934 81.5485C282.99 80.2253 283.518 78.6815 283.518 76.9172C283.518 75.3105 283.062 74.003 282.15 72.9948C281.238 71.9867 280.038 71.1675 278.55 70.5374C277.062 69.9073 275.454 69.356 273.726 68.8834L267.679 67.1821C263.839 66.0952 260.799 64.5436 258.559 62.5272C256.319 60.5109 255.199 57.8724 255.199 54.6116C255.199 51.9021 255.943 49.5393 257.431 47.5229C258.935 45.4909 260.951 43.9156 263.479 42.7972C266.023 41.663 268.863 41.0959 271.998 41.0959C275.166 41.0959 277.982 41.6551 280.446 42.7735C282.91 43.8762 284.862 45.3885 286.302 47.3103C287.758 49.2321 288.526 51.4138 288.606 53.8555H282.846Z"/>
<path d="M0.055542 4.29283C0.055542 1.92196 2.00762 0 4.41563 0H61.0967C77.9528 0 91.6173 13.4538 91.6173 30.0498V85.8565C91.6173 88.2274 89.6653 90.1494 87.2572 90.1494H30.5761C13.7201 90.1494 0.055542 76.6956 0.055542 60.0996V4.29283Z"/>
</mask>
<path d="M100.585 38.6354V1.17077H113.443C116.428 1.17077 118.868 1.70128 120.763 2.76229C122.671 3.8111 124.083 5.23188 124.999 7.02463C125.916 8.81737 126.374 10.8174 126.374 13.0248C126.374 15.2322 125.916 17.2384 124.999 19.0433C124.095 20.8483 122.695 22.2873 120.8 23.3605C118.905 24.4216 116.477 24.9521 113.517 24.9521H104.301V20.9275H113.368C115.412 20.9275 117.053 20.58 118.292 19.8848C119.531 19.1897 120.429 18.2506 120.986 17.0676C121.556 15.8725 121.841 14.5249 121.841 13.0248C121.841 11.5248 121.556 10.1833 120.986 9.0003C120.429 7.81733 119.524 6.89047 118.273 6.21972C117.022 5.53677 115.362 5.1953 113.294 5.1953H105.193V38.6354H100.585Z" fill="black"/>
<path d="M131.474 38.6354H126.644L140.616 1.17077H145.372L159.344 38.6354H154.513L143.143 7.0978H142.845L131.474 38.6354ZM133.258 24.0008H152.73V28.0253H133.258V24.0008Z" fill="black"/>
<path d="M165.271 38.6354V1.17077H169.879V34.6109H187.567V38.6354H165.271Z" fill="black"/>
<path d="M198.664 38.6354H193.833L207.805 1.17077H212.562L226.534 38.6354H221.703L210.332 7.0978H210.035L198.664 38.6354ZM200.448 24.0008H219.919V28.0253H200.448V24.0008Z" fill="black"/>
<path d="M225.935 5.1953V1.17077H254.473V5.1953H242.508V38.6354H237.9V5.1953H225.935Z" fill="black"/>
<path d="M261.585 38.6354V1.17077H284.55V5.1953H266.193V17.8543H283.36V21.8788H266.193V34.6109H284.847V38.6354H261.585Z" fill="black"/>
<path d="M101.929 90.1494V41.7575H118.537C122.392 41.7575 125.544 42.4427 127.992 43.8132C130.456 45.1679 132.28 47.0031 133.464 49.3187C134.648 51.6343 135.24 54.2178 135.24 57.069C135.24 59.9202 134.648 62.5115 133.464 64.8429C132.296 67.1743 130.488 69.0331 128.04 70.4193C125.592 71.7898 122.456 72.475 118.633 72.475H106.729V67.2766H118.441C121.08 67.2766 123.2 66.8277 124.8 65.9298C126.4 65.0319 127.56 63.819 128.28 62.291C129.016 60.7472 129.384 59.0066 129.384 57.069C129.384 55.1314 129.016 53.3986 128.28 51.8706C127.56 50.3426 126.392 49.1454 124.776 48.2791C123.16 47.3969 121.016 46.9558 118.345 46.9558H107.881V90.1494H101.929Z" fill="black"/>
<path d="M150.779 41.7575V90.1494H144.827V41.7575H150.779Z" fill="black"/>
<path d="M202.263 56.88H196.311C195.959 55.1944 195.343 53.7137 194.464 52.4377C193.6 51.1618 192.544 50.0906 191.296 49.2242C190.064 48.3421 188.696 47.6805 187.192 47.2394C185.688 46.7983 184.12 46.5778 182.488 46.5778C179.512 46.5778 176.816 47.3181 174.4 48.7989C172 50.2796 170.088 52.4614 168.665 55.3441C167.257 58.2268 166.553 61.7632 166.553 65.9534C166.553 70.1436 167.257 73.6801 168.665 76.5628C170.088 79.4455 172 81.6272 174.4 83.108C176.816 84.5887 179.512 85.3291 182.488 85.3291C184.12 85.3291 185.688 85.1085 187.192 84.6675C188.696 84.2264 190.064 83.5727 191.296 82.7063C192.544 81.8241 193.6 80.7451 194.464 79.4691C195.343 78.1774 195.959 76.6967 196.311 75.0269H202.263C201.815 77.5001 200.999 79.7133 199.815 81.6666C198.631 83.6199 197.159 85.2818 195.399 86.6523C193.64 88.007 191.664 89.0388 189.472 89.7477C187.296 90.4565 184.968 90.811 182.488 90.811C178.296 90.811 174.568 89.8028 171.304 87.7865C168.041 85.7702 165.473 82.9032 163.601 79.1856C161.729 75.468 160.793 71.0573 160.793 65.9534C160.793 60.8496 161.729 56.4389 163.601 52.7213C165.473 49.0037 168.041 46.1367 171.304 44.1204C174.568 42.1041 178.296 41.0959 182.488 41.0959C184.968 41.0959 187.296 41.4503 189.472 42.1592C191.664 42.8681 193.64 43.9077 195.399 45.2782C197.159 46.6329 198.631 48.2869 199.815 50.2402C200.999 52.1778 201.815 54.3911 202.263 56.88Z" fill="black"/>
<path d="M211.881 90.1494V41.7575H217.833V65.7644H218.409L240.488 41.7575H248.263L227.624 63.5905L248.263 90.1494H241.064L223.976 67.6547L217.833 74.4598V90.1494H211.881Z" fill="black"/>
<path d="M282.846 53.8555C282.558 51.4611 281.39 49.6023 279.342 48.2791C277.294 46.9558 274.782 46.2942 271.806 46.2942C269.631 46.2942 267.727 46.6408 266.095 47.3339C264.479 48.027 263.215 48.98 262.303 50.193C261.407 51.4059 260.959 52.7843 260.959 54.328C260.959 55.6198 261.271 56.7303 261.895 57.6597C262.535 58.5734 263.351 59.3374 264.343 59.9517C265.335 60.5503 266.375 61.0465 267.463 61.4403C268.551 61.8184 269.551 62.1256 270.463 62.3618L275.454 63.6851C276.734 64.0159 278.158 64.4727 279.726 65.0555C281.31 65.6384 282.822 66.4339 284.262 67.442C285.718 68.4345 286.918 69.7104 287.862 71.2699C288.806 72.8294 289.278 74.7434 289.278 77.0117C289.278 79.6266 288.582 81.9895 287.19 84.1004C285.814 86.2112 283.798 87.8889 281.142 89.1333C278.502 90.3778 275.294 91 271.518 91C267.999 91 264.951 90.4408 262.375 89.3224C259.815 88.2039 257.799 86.6444 256.327 84.6438C254.871 82.6433 254.047 80.3198 253.855 77.6733H259.999C260.159 79.5006 260.783 81.0129 261.871 82.2101C262.975 83.3915 264.367 84.2737 266.047 84.8565C267.743 85.4236 269.567 85.7071 271.518 85.7071C273.79 85.7071 275.83 85.3448 277.638 84.6202C279.446 83.8799 280.878 82.8559 281.934 81.5485C282.99 80.2253 283.518 78.6815 283.518 76.9172C283.518 75.3105 283.062 74.003 282.15 72.9948C281.238 71.9867 280.038 71.1675 278.55 70.5374C277.062 69.9073 275.454 69.356 273.726 68.8834L267.679 67.1821C263.839 66.0952 260.799 64.5436 258.559 62.5272C256.319 60.5109 255.199 57.8724 255.199 54.6116C255.199 51.9021 255.943 49.5393 257.431 47.5229C258.935 45.4909 260.951 43.9156 263.479 42.7972C266.023 41.663 268.863 41.0959 271.998 41.0959C275.166 41.0959 277.982 41.6551 280.446 42.7735C282.91 43.8762 284.862 45.3885 286.302 47.3103C287.758 49.2321 288.526 51.4138 288.606 53.8555H282.846Z" fill="black"/>
<path d="M100.585 38.6354V1.17077H113.443C116.428 1.17077 118.868 1.70128 120.763 2.76229C122.671 3.8111 124.083 5.23188 124.999 7.02463C125.916 8.81737 126.374 10.8174 126.374 13.0248C126.374 15.2322 125.916 17.2384 124.999 19.0433C124.095 20.8483 122.695 22.2873 120.8 23.3605C118.905 24.4216 116.477 24.9521 113.517 24.9521H104.301V20.9275H113.368C115.412 20.9275 117.053 20.58 118.292 19.8848C119.531 19.1897 120.429 18.2506 120.986 17.0676C121.556 15.8725 121.841 14.5249 121.841 13.0248C121.841 11.5248 121.556 10.1833 120.986 9.0003C120.429 7.81733 119.524 6.89047 118.273 6.21972C117.022 5.53677 115.362 5.1953 113.294 5.1953H105.193V38.6354H100.585Z" stroke="white" stroke-width="18" mask="url(#path-1-inside-1_7_106)"/>
<path d="M131.474 38.6354H126.644L140.616 1.17077H145.372L159.344 38.6354H154.513L143.143 7.0978H142.845L131.474 38.6354ZM133.258 24.0008H152.73V28.0253H133.258V24.0008Z" stroke="white" stroke-width="18" mask="url(#path-1-inside-1_7_106)"/>
<path d="M165.271 38.6354V1.17077H169.879V34.6109H187.567V38.6354H165.271Z" stroke="white" stroke-width="18" mask="url(#path-1-inside-1_7_106)"/>
<path d="M198.664 38.6354H193.833L207.805 1.17077H212.562L226.534 38.6354H221.703L210.332 7.0978H210.035L198.664 38.6354ZM200.448 24.0008H219.919V28.0253H200.448V24.0008Z" stroke="white" stroke-width="18" mask="url(#path-1-inside-1_7_106)"/>
<path d="M225.935 5.1953V1.17077H254.473V5.1953H242.508V38.6354H237.9V5.1953H225.935Z" stroke="white" stroke-width="18" mask="url(#path-1-inside-1_7_106)"/>
<path d="M261.585 38.6354V1.17077H284.55V5.1953H266.193V17.8543H283.36V21.8788H266.193V34.6109H284.847V38.6354H261.585Z" stroke="white" stroke-width="18" mask="url(#path-1-inside-1_7_106)"/>
<path d="M101.929 90.1494V41.7575H118.537C122.392 41.7575 125.544 42.4427 127.992 43.8132C130.456 45.1679 132.28 47.0031 133.464 49.3187C134.648 51.6343 135.24 54.2178 135.24 57.069C135.24 59.9202 134.648 62.5115 133.464 64.8429C132.296 67.1743 130.488 69.0331 128.04 70.4193C125.592 71.7898 122.456 72.475 118.633 72.475H106.729V67.2766H118.441C121.08 67.2766 123.2 66.8277 124.8 65.9298C126.4 65.0319 127.56 63.819 128.28 62.291C129.016 60.7472 129.384 59.0066 129.384 57.069C129.384 55.1314 129.016 53.3986 128.28 51.8706C127.56 50.3426 126.392 49.1454 124.776 48.2791C123.16 47.3969 121.016 46.9558 118.345 46.9558H107.881V90.1494H101.929Z" stroke="white" stroke-width="18" mask="url(#path-1-inside-1_7_106)"/>
<path d="M150.779 41.7575V90.1494H144.827V41.7575H150.779Z" stroke="white" stroke-width="18" mask="url(#path-1-inside-1_7_106)"/>
<path d="M202.263 56.88H196.311C195.959 55.1944 195.343 53.7137 194.464 52.4377C193.6 51.1618 192.544 50.0906 191.296 49.2242C190.064 48.3421 188.696 47.6805 187.192 47.2394C185.688 46.7983 184.12 46.5778 182.488 46.5778C179.512 46.5778 176.816 47.3181 174.4 48.7989C172 50.2796 170.088 52.4614 168.665 55.3441C167.257 58.2268 166.553 61.7632 166.553 65.9534C166.553 70.1436 167.257 73.6801 168.665 76.5628C170.088 79.4455 172 81.6272 174.4 83.108C176.816 84.5887 179.512 85.3291 182.488 85.3291C184.12 85.3291 185.688 85.1085 187.192 84.6675C188.696 84.2264 190.064 83.5727 191.296 82.7063C192.544 81.8241 193.6 80.7451 194.464 79.4691C195.343 78.1774 195.959 76.6967 196.311 75.0269H202.263C201.815 77.5001 200.999 79.7133 199.815 81.6666C198.631 83.6199 197.159 85.2818 195.399 86.6523C193.64 88.007 191.664 89.0388 189.472 89.7477C187.296 90.4565 184.968 90.811 182.488 90.811C178.296 90.811 174.568 89.8028 171.304 87.7865C168.041 85.7702 165.473 82.9032 163.601 79.1856C161.729 75.468 160.793 71.0573 160.793 65.9534C160.793 60.8496 161.729 56.4389 163.601 52.7213C165.473 49.0037 168.041 46.1367 171.304 44.1204C174.568 42.1041 178.296 41.0959 182.488 41.0959C184.968 41.0959 187.296 41.4503 189.472 42.1592C191.664 42.8681 193.64 43.9077 195.399 45.2782C197.159 46.6329 198.631 48.2869 199.815 50.2402C200.999 52.1778 201.815 54.3911 202.263 56.88Z" stroke="white" stroke-width="18" mask="url(#path-1-inside-1_7_106)"/>
<path d="M211.881 90.1494V41.7575H217.833V65.7644H218.409L240.488 41.7575H248.263L227.624 63.5905L248.263 90.1494H241.064L223.976 67.6547L217.833 74.4598V90.1494H211.881Z" stroke="white" stroke-width="18" mask="url(#path-1-inside-1_7_106)"/>
<path d="M282.846 53.8555C282.558 51.4611 281.39 49.6023 279.342 48.2791C277.294 46.9558 274.782 46.2942 271.806 46.2942C269.631 46.2942 267.727 46.6408 266.095 47.3339C264.479 48.027 263.215 48.98 262.303 50.193C261.407 51.4059 260.959 52.7843 260.959 54.328C260.959 55.6198 261.271 56.7303 261.895 57.6597C262.535 58.5734 263.351 59.3374 264.343 59.9517C265.335 60.5503 266.375 61.0465 267.463 61.4403C268.551 61.8184 269.551 62.1256 270.463 62.3618L275.454 63.6851C276.734 64.0159 278.158 64.4727 279.726 65.0555C281.31 65.6384 282.822 66.4339 284.262 67.442C285.718 68.4345 286.918 69.7104 287.862 71.2699C288.806 72.8294 289.278 74.7434 289.278 77.0117C289.278 79.6266 288.582 81.9895 287.19 84.1004C285.814 86.2112 283.798 87.8889 281.142 89.1333C278.502 90.3778 275.294 91 271.518 91C267.999 91 264.951 90.4408 262.375 89.3224C259.815 88.2039 257.799 86.6444 256.327 84.6438C254.871 82.6433 254.047 80.3198 253.855 77.6733H259.999C260.159 79.5006 260.783 81.0129 261.871 82.2101C262.975 83.3915 264.367 84.2737 266.047 84.8565C267.743 85.4236 269.567 85.7071 271.518 85.7071C273.79 85.7071 275.83 85.3448 277.638 84.6202C279.446 83.8799 280.878 82.8559 281.934 81.5485C282.99 80.2253 283.518 78.6815 283.518 76.9172C283.518 75.3105 283.062 74.003 282.15 72.9948C281.238 71.9867 280.038 71.1675 278.55 70.5374C277.062 69.9073 275.454 69.356 273.726 68.8834L267.679 67.1821C263.839 66.0952 260.799 64.5436 258.559 62.5272C256.319 60.5109 255.199 57.8724 255.199 54.6116C255.199 51.9021 255.943 49.5393 257.431 47.5229C258.935 45.4909 260.951 43.9156 263.479 42.7972C266.023 41.663 268.863 41.0959 271.998 41.0959C275.166 41.0959 277.982 41.6551 280.446 42.7735C282.91 43.8762 284.862 45.3885 286.302 47.3103C287.758 49.2321 288.526 51.4138 288.606 53.8555H282.846Z" stroke="white" stroke-width="18" mask="url(#path-1-inside-1_7_106)"/>
<path d="M0.055542 4.29283C0.055542 1.92196 2.00762 0 4.41563 0H61.0967C77.9528 0 91.6173 13.4538 91.6173 30.0498V85.8565C91.6173 88.2274 89.6653 90.1494 87.2572 90.1494H30.5761C13.7201 90.1494 0.055542 76.6956 0.055542 60.0996V4.29283Z" stroke="white" stroke-width="18" mask="url(#path-1-inside-1_7_106)"/>
</svg>
