<svg width="172" height="179" viewBox="0 0 172 179" fill="none" xmlns="http://www.w3.org/2000/svg">
<path d="M168.5 89.5205C168.5 136.621 131.466 174.624 86 174.624C40.5342 174.624 3.5 136.621 3.5 89.5205C3.5 42.42 40.5342 4.41699 86 4.41699C131.466 4.41699 168.5 42.42 168.5 89.5205Z" fill="#FF9190" stroke="#C01919" stroke-width="7"/>
<path d="M115.577 62.2579C115.577 79.2449 102.237 92.8362 86 92.8362C69.7628 92.8362 56.4231 79.2449 56.4231 62.2579C56.4231 45.2709 69.7628 31.6796 86 31.6796C102.237 31.6796 115.577 45.2709 115.577 62.2579Z" stroke="#C01919" stroke-width="7"/>
<path d="M142.231 150.861C142.231 118.866 117.055 96.2375 86.0001 96.2375C54.9447 96.2375 29.7693 118.866 29.7693 150.861" stroke="#C01919" stroke-width="7"/>
</svg>
