<svg width="26" height="28" viewBox="0 0 26 28" fill="none" xmlns="http://www.w3.org/2000/svg">
<path d="M25 13.8662C25 20.7393 19.5995 26.2598 13 26.2598C6.40049 26.2598 1 20.7393 1 13.8662C1 6.99312 6.40049 1.47266 13 1.47266C19.5995 1.47266 25 6.99312 25 13.8662Z" stroke="#D95555" stroke-width="2"/>
<path d="M17 9.74512C17 12.0662 15.1812 13.8965 13 13.8965C10.8188 13.8965 9 12.0662 9 9.74512C9 7.42406 10.8188 5.59375 13 5.59375C15.1812 5.59375 17 7.42406 17 9.74512Z" stroke="#D95555" stroke-width="2"/>
<path d="M21.5 23.1387C21.5 18.3021 17.6944 14.8816 13 14.8816C8.30558 14.8816 4.5 18.3021 4.5 23.1387" stroke="#D95555" stroke-width="2"/>
</svg>
