<svg width="28" height="28" viewBox="0 0 28 28" fill="none" xmlns="http://www.w3.org/2000/svg">
<path d="M4.83218 13.4021C1.15573 13.4021 0.00312632 5.27136 7.92559 6.69514C8.63975 6.82349 9.32249 6.22668 9.41959 5.50761C10.1153 0.355412 18.5159 0.0945102 19.256 5.13489C19.3916 6.05823 20.5837 6.95066 21.4893 6.72544C26.3671 5.51241 29.7303 10.3352 23.9525 13.4021" stroke="#D95555" stroke-width="2"/>
<path d="M4.83215 13.4021V21.4954C4.83215 24.2568 7.07073 26.4954 9.83215 26.4954H18.9524C21.7139 26.4954 23.9524 24.2568 23.9524 21.4954V13.4021" stroke="#D95555" stroke-width="2" stroke-linecap="round"/>
<path d="M4.83215 22.9243H23.9524" stroke="#D95555" stroke-width="2"/>
<path d="M8.72705 15.386V18.5601" stroke="#D95555" stroke-width="2" stroke-linecap="round"/>
<path d="M20.0576 15.386V18.5601" stroke="#D95555" stroke-width="2" stroke-linecap="round"/>
<path d="M14.3923 16.9729V20.147" stroke="#D95555" stroke-width="2" stroke-linecap="round"/>
</svg>
