<svg width="27" height="22" viewBox="0 0 27 22" fill="none" xmlns="http://www.w3.org/2000/svg">
<path d="M14 4.46701C12.4556 2.63106 5.88261 2.05606 1.9979 1.97221C1.44574 1.96029 1 2.40865 1 2.96094V16.8841C1 17.4795 1.51818 17.944 2.11364 17.9452C5.29678 17.9514 9.81102 19.1395 12.6579 20.0532C13.3162 20.2645 14 19.7789 14 19.0875V4.46701Z" stroke="#D95555" stroke-width="2"/>
<path d="M13 4.46701C14.5444 2.63106 21.1174 2.05606 25.0021 1.97221C25.5543 1.96029 26 2.40865 26 2.96094V16.8841C26 17.4795 25.4818 17.944 24.8864 17.9452C21.7032 17.9514 17.189 19.1395 14.3421 20.0532C13.6838 20.2645 13 19.7789 13 19.0875V4.46701Z" stroke="#D95555" stroke-width="2"/>
<path d="M4 6.16914C5.66667 5.99743 9.2 5.96308 10 7.19941" stroke="#D95555"/>
<path d="M4 10.2902C5.66667 10.1185 9.2 10.0842 10 11.3205" stroke="#D95555"/>
<path d="M4 14.4113C5.66667 14.2396 9.2 14.2053 10 15.4416" stroke="#D95555"/>
<path d="M17.5 7.3958C18.1667 6.70895 21.6 5.54129 24 6.36551" stroke="#D95555"/>
<path d="M17 11.5169C17.6667 10.83 21.1 9.66238 23.5 10.4866" stroke="#D95555"/>
<path d="M17 15.638C17.6667 14.9511 21.1 13.7835 23.5 14.6077" stroke="#D95555"/>
</svg>
