<svg width="31" height="22" viewBox="0 0 31 22" fill="none" xmlns="http://www.w3.org/2000/svg">
<path d="M15.1817 6.96253L3.07756 18.4355C2.31153 19.1616 3.04691 20.4252 4.05665 20.1179L20.6874 15.0564M15.1817 6.96253C15.1817 8.83949 16.8009 14.5559 20.6874 15.0564M15.1817 6.96253C16.6391 6.09065 19.0277 7.85056 20.0398 8.8395C21.052 9.82843 24.5739 15.5569 20.6874 15.0564" stroke="#D95555" stroke-width="1.5"/>
<path d="M22.1735 0.74707L19.946 5.88905" stroke="#D95555" stroke-width="1.5"/>
<path d="M22.4688 8.06486L27.7696 4.26917" stroke="#D95555" stroke-width="1.5"/>
<path d="M23.6834 11.6809L30.1318 11.3726" stroke="#D95555" stroke-width="1.5"/>
<path d="M10.1318 11.6222C10.1318 12.6424 12.5392 16.4237 14.5763 16.7735" stroke="#D95555" stroke-width="1.5"/>
<path d="M6.79028 14.7388C6.79028 15.5039 8.40297 17.9743 9.76103 18.2367" stroke="#D95555" stroke-width="1.5"/>
</svg>
